<svg width="344" height="192" viewBox="0 0 344 192" fill="none" xmlns="http://www.w3.org/2000/svg">
<path d="M214.323 96.9691V110.409H207.171V103.305H179.091V69.7051H186.819V96.9691H201.795V69.7051H209.523V96.9691H214.323ZM243.651 90.4891C243.651 90.5851 243.603 91.2571 243.507 92.5051H223.971C224.323 94.1051 225.155 95.3691 226.467 96.2971C227.779 97.2251 229.411 97.6891 231.363 97.6891C232.707 97.6891 233.891 97.4971 234.915 97.1131C235.971 96.6971 236.947 96.0571 237.843 95.1931L241.827 99.5131C239.395 102.297 235.843 103.689 231.171 103.689C228.259 103.689 225.683 103.129 223.443 102.009C221.203 100.857 219.475 99.2731 218.259 97.2571C217.043 95.2411 216.435 92.9531 216.435 90.3931C216.435 87.8651 217.027 85.5931 218.211 83.5771C219.427 81.5291 221.075 79.9451 223.155 78.8251C225.267 77.6731 227.619 77.0971 230.211 77.0971C232.739 77.0971 235.027 77.6411 237.075 78.7291C239.123 79.8171 240.723 81.3851 241.875 83.4331C243.059 85.4491 243.651 87.8011 243.651 90.4891ZM230.259 82.7611C228.563 82.7611 227.139 83.2411 225.987 84.2011C224.835 85.1611 224.131 86.4731 223.875 88.1371H236.595C236.339 86.5051 235.635 85.2091 234.483 84.2491C233.331 83.2571 231.923 82.7611 230.259 82.7611ZM273.924 77.4811V103.305H266.436V83.6251H258.276L258.036 88.1851C257.908 91.5771 257.588 94.3931 257.076 96.6331C256.564 98.8731 255.732 100.633 254.58 101.913C253.428 103.193 251.828 103.833 249.78 103.833C248.692 103.833 247.396 103.641 245.892 103.257L246.276 97.1131C246.788 97.1771 247.156 97.2091 247.38 97.2091C248.5 97.2091 249.332 96.8091 249.876 96.0091C250.452 95.1771 250.836 94.1371 251.028 92.8891C251.22 91.6091 251.364 89.9291 251.46 87.8491L251.844 77.4811H273.924ZM295.093 85.7371C298.453 85.7691 301.029 86.5371 302.821 88.0411C304.613 89.5131 305.509 91.6091 305.509 94.3291C305.509 97.1771 304.501 99.4011 302.485 101.001C300.501 102.569 297.701 103.353 294.085 103.353L281.125 103.305V77.4811H288.565V85.7371H295.093ZM293.413 98.0251C294.853 98.0571 295.957 97.7531 296.725 97.1131C297.493 96.4731 297.877 95.5131 297.877 94.2331C297.877 92.9851 297.493 92.0731 296.725 91.4971C295.989 90.9211 294.885 90.6171 293.413 90.5851L288.565 90.5371V98.0251H293.413ZM178.899 124.705H186.675V158.305H178.899V124.705ZM201.609 131.041H190.857V124.705H220.137V131.041H209.385V158.305H201.609V131.041ZM221.099 141.793H234.683V147.793H221.099V141.793ZM251.486 158.881C248.83 158.881 246.254 158.529 243.758 157.825C241.294 157.089 239.31 156.145 237.806 154.993L240.446 149.137C241.886 150.193 243.598 151.041 245.582 151.681C247.566 152.321 249.55 152.641 251.534 152.641C253.742 152.641 255.374 152.321 256.43 151.681C257.486 151.009 258.014 150.129 258.014 149.041C258.014 148.241 257.694 147.585 257.054 147.073C256.446 146.529 255.646 146.097 254.654 145.777C253.694 145.457 252.382 145.105 250.718 144.721C248.158 144.113 246.062 143.505 244.43 142.897C242.798 142.289 241.39 141.313 240.206 139.969C239.054 138.625 238.478 136.833 238.478 134.593C238.478 132.641 239.006 130.881 240.062 129.313C241.118 127.713 242.702 126.449 244.814 125.521C246.958 124.593 249.566 124.129 252.638 124.129C254.782 124.129 256.878 124.385 258.926 124.897C260.974 125.409 262.766 126.145 264.302 127.105L261.902 133.009C258.798 131.249 255.694 130.369 252.59 130.369C250.414 130.369 248.798 130.721 247.742 131.425C246.718 132.129 246.206 133.057 246.206 134.209C246.206 135.361 246.798 136.225 247.982 136.801C249.198 137.345 251.038 137.889 253.502 138.433C256.062 139.041 258.158 139.649 259.79 140.257C261.422 140.865 262.814 141.825 263.966 143.137C265.15 144.449 265.742 146.225 265.742 148.465C265.742 150.385 265.198 152.145 264.11 153.745C263.054 155.313 261.454 156.561 259.31 157.489C257.166 158.417 254.558 158.881 251.486 158.881ZM285.6 124.705C288.576 124.705 291.152 125.201 293.328 126.193C295.536 127.185 297.232 128.593 298.416 130.417C299.6 132.241 300.192 134.401 300.192 136.897C300.192 139.361 299.6 141.521 298.416 143.377C297.232 145.201 295.536 146.609 293.328 147.601C291.152 148.561 288.576 149.041 285.6 149.041H278.832V158.305H271.056V124.705H285.6ZM285.168 142.705C287.504 142.705 289.28 142.209 290.496 141.217C291.712 140.193 292.32 138.753 292.32 136.897C292.32 135.009 291.712 133.569 290.496 132.577C289.28 131.553 287.504 131.041 285.168 131.041H278.832V142.705H285.168ZM317.983 145.105L313.471 149.809V158.305H305.743V124.705H313.471V140.401L328.351 124.705H336.991L323.071 139.681L337.807 158.305H328.735L317.983 145.105Z" fill="#001E42"/>
<path d="M111.139 59.385C113.884 54.1263 116.549 49.0181 119.218 43.91C148.033 58.6574 168.431 97.7665 155.295 136.986C139.681 183.592 87.8193 203.658 45.8079 183.818C3.63501 163.897 -11.4639 114.466 9.13055 75.698C32.1927 32.2936 81.9957 25.1834 112.017 40.2118C109.468 45.3601 106.92 50.5084 104.24 55.9277C86.2599 48.8877 68.5874 49.1185 51.3892 57.97C34.1053 66.8666 23.4826 81.0671 19.4505 99.8238C13.5714 127.181 27.3532 156.892 56.2287 168.784C84.6198 180.476 115.272 169.467 131.279 145.727C148.533 120.141 144.041 79.2557 111.139 59.385Z" fill="#00FEFF"/>
<path d="M95.615 72.2597C93.1721 77.2484 90.8742 82.1005 88.3764 86.8464C88.0467 87.4738 86.563 88.005 85.8286 87.8026C73.6244 84.4178 61.2304 91.8452 56.7244 102.536C52.678 112.134 55.5504 124.975 63.6033 131.467C75.1731 140.786 90.3546 139.101 99.4865 127.49C107.225 117.654 106.101 102.657 96.729 94.0411C94.6408 92.1235 94.1363 90.8687 95.6899 88.3086C98.1128 84.3116 100.026 79.9958 102.154 75.8166C117.351 83.8258 127.362 106.295 119.933 126.822C111.011 151.472 84.3899 161.495 62.5392 151.862C40.3239 142.066 30.5076 114.957 41.368 93.0393C52.5231 70.5091 77.9706 64.3972 95.615 72.2597Z" fill="#001E42"/>
<path d="M142.847 8.27266C140.435 13.1131 138.132 17.7415 135.815 22.3649C135.589 22.8142 135.283 23.223 135.062 23.6722C132.735 28.3865 132.715 28.5076 127.478 27.5234C125.351 27.1246 124.373 27.7656 123.42 29.618C110.985 53.8455 98.4692 78.0325 85.9839 102.235C84.1831 105.722 82.4124 109.23 80.6266 112.723C80.3106 112.678 79.9946 112.627 79.6836 112.582C79.7388 111.86 79.5883 111.037 79.8842 110.432C82.4425 105.152 85.076 99.9079 87.6894 94.6535C92.7207 84.5184 97.7519 74.3782 102.788 64.238C109.124 51.4883 115.464 38.7387 121.865 25.8577C120.45 24.1871 118.99 22.5719 117.676 20.8507C117.235 20.2753 116.743 19.2053 116.984 18.7106C120.029 12.4872 123.214 6.32942 126.439 0C127.438 1.08519 128.501 1.87258 129.083 2.93253C131.601 7.53069 135.795 8.16666 140.379 8.06067C141.102 8.04553 141.824 8.17676 142.847 8.27266Z" fill="#001E42"/>
<path d="M81.4509 101.211C79.4272 105.15 77.517 108.868 75.5242 112.748C77.6099 113.8 79.4685 114.743 81.5387 115.785C83.6967 111.899 85.7256 108.241 87.7649 104.573C91.5904 107.007 92.561 113.978 89.6441 118.134C86.34 122.844 79.9951 124.74 74.9047 122.43C69.391 119.931 66.7528 114.131 68.6166 108.611C70.3202 103.576 75.7204 100.312 81.4509 101.211Z" fill="#00FEFF"/>
</svg>
